<svg fill="none" height="48" viewBox="0 0 49 48" width="49" xmlns="http://www.w3.org/2000/svg"><path d="m24.8964 37.2429-12.9834 6.4852c-.9805.5322-2.20357.1769-2.75197-.7996-.16016-.307-.24485-.6482-.24697-.9949v-14.5161c0 1.4392.81147 2.3275 2.94594 3.3225z" fill="#00ffb3"/><path d="m31.053 4c5.4156 0 9.8081 2.1321 9.8611 7.5867v30.347c-.0022.3411-.087.6765-.247.9772-.2571.4904-.7012.8545-1.2301 1.0086s-1.0974.0851-1.5748-.1913l-12.9658-6.4851-13.0364-6.503c-2.13447-.9949-2.94594-1.8833-2.94594-3.3225v-15.8309c0-5.4546 4.39254-7.5867 9.79054-7.5867zm1.3583 12.0819h-15.0474c-.8671 0-1.57.708-1.57 1.5813 0 .8734.7029 1.5813 1.57 1.5813h15.0474c.8671 0 1.57-.7079 1.57-1.5813 0-.8733-.7029-1.5813-1.57-1.5813z" fill="#0040ff"/></svg>