<svg width="48" height="48" viewBox="0 0 48 48" fill="none" xmlns="http://www.w3.org/2000/svg">
<path d="M32.101 36.1802C31.1921 36.1602 30.461 35.4002 30.461 34.4802C30.4413 33.5602 31.1723 32.8022 32.0812 32.7822H32.101C33.0296 32.7822 33.7805 33.5422 33.7805 34.4802C33.7805 35.4202 33.0296 36.1802 32.101 36.1802ZM24.0395 28.8202C23.1306 28.8622 22.3798 28.1402 22.3403 27.2222C22.3403 26.3022 23.0516 25.5422 23.9605 25.5002C24.8496 25.5002 25.5807 26.2022 25.6004 27.1002C25.64 28.0222 24.9286 28.7822 24.0395 28.8202ZM24.0395 36.0802C23.1306 36.1222 22.3798 35.4002 22.3403 34.4802C22.3403 33.5602 23.0516 32.8022 23.9605 32.7602C24.8496 32.7602 25.5807 33.4622 25.6004 34.3622C25.64 35.2822 24.9286 36.0422 24.0395 36.0802ZM15.9188 28.8202C15.0099 28.8622 14.2591 28.1402 14.2195 27.2222C14.2195 26.3022 14.9308 25.5422 15.8397 25.5002C16.7289 25.5002 17.4599 26.2022 17.4797 27.1002C17.5192 28.0222 16.8079 28.7822 15.9188 28.8202ZM15.899 36.0802C14.9901 36.1222 14.2393 35.4002 14.1998 34.4802C14.1998 33.5602 14.9111 32.8022 15.82 32.7602C16.7091 32.7602 17.4402 33.4622 17.4599 34.3622C17.4995 35.2822 16.7881 36.0422 15.899 36.0802ZM30.4808 27.2022C30.4808 26.2822 31.1921 25.5422 32.101 25.5222C32.9901 25.5222 33.7014 26.2402 33.7409 27.1222C33.7607 28.0422 33.0494 28.8022 32.1603 28.8202C31.2514 28.8402 30.5005 28.1402 30.4808 27.2222V27.2022ZM6 18.5142V33.7402C6 40.0602 9.99122 44.0002 16.2547 44.0002H31.7256C38.0483 44.0002 42 40.1402 42 33.8622V18.5142H6Z" fill="#0040FF"/>
<path d="M6.00781 18.514C6.0335 17.34 6.13229 15.01 6.31802 14.26C7.26643 10.042 10.4871 7.36198 15.0908 6.97998H32.913C37.4772 7.38198 40.7373 10.08 41.6857 14.26C41.8695 14.99 41.9683 17.338 41.994 18.514H6.00781Z" fill="#00FFB3"/>
<path d="M16.6112 13.18C17.4806 13.18 18.1327 12.522 18.1327 11.64V5.542C18.1327 4.66 17.4806 4 16.6112 4C15.7419 4 15.0898 4.66 15.0898 5.542V11.64C15.0898 12.522 15.7419 13.18 16.6112 13.18Z" fill="black"/>
<path d="M31.3886 13.18C32.2382 13.18 32.91 12.522 32.91 11.64V5.542C32.91 4.66 32.2382 4 31.3886 4C30.5192 4 29.8672 4.66 29.8672 5.542V11.64C29.8672 12.522 30.5192 13.18 31.3886 13.18Z" fill="black"/>
</svg>
