<svg width="49" height="49" viewBox="0 0 49 49" fill="none" xmlns="http://www.w3.org/2000/svg">
<path d="M4.83594 22.3262C4.93594 27.0022 5.21594 35.0002 5.25594 35.8822C5.39794 37.7682 6.11994 39.6742 7.24394 41.0182C8.80794 42.9042 10.7339 43.7462 13.4199 43.7462C17.1319 43.7662 21.2239 43.7662 25.1979 43.7662C29.1879 43.7662 33.0599 43.7662 36.3299 43.7462C38.9779 43.7462 40.9639 42.8822 42.5079 41.0182C43.6319 39.6742 44.3539 37.7482 44.4559 35.8822C44.4959 35.1402 44.6959 26.4582 44.8159 22.3262H4.83594Z" fill="#00FFB3"/>
<path d="M23.3281 30.9375V33.5255C23.3281 34.3535 24.0001 35.0255 24.8281 35.0255C25.6561 35.0255 26.3281 34.3535 26.3281 33.5255V30.9375C26.3281 30.1095 25.6561 29.4375 24.8281 29.4375C24.0001 29.4375 23.3281 30.1095 23.3281 30.9375Z" fill="black"/>
<path d="M27.4079 4.16992C30.4099 4.16992 32.8719 6.42792 33.2479 9.33192H37.2019C41.3999 9.33192 44.8159 12.7479 44.8159 16.9479V23.8799C44.8159 24.3839 44.5619 24.8539 44.1439 25.1319C40.0199 27.8619 35.1239 29.6799 29.9879 30.3899C29.9179 30.3999 29.8499 30.4039 29.7819 30.4039C29.1039 30.4039 28.4979 29.9459 28.3279 29.2739C27.9239 27.6819 26.4779 26.5679 24.8159 26.5679C23.1319 26.5679 21.7019 27.6579 21.2579 29.2819C21.0579 30.0079 20.3599 30.4719 19.6039 30.3719C14.5019 29.6599 9.62594 27.8499 5.50994 25.1319C5.08794 24.8559 4.83594 24.3839 4.83594 23.8799V16.9479C4.83594 12.7479 8.25994 9.33192 12.4699 9.33192H16.4039C16.7799 6.42792 19.2399 4.16992 22.2439 4.16992H27.4079ZM27.4079 7.16992H22.2439C20.8979 7.16992 19.7739 8.08992 19.4379 9.33192H30.2119C29.8759 8.08992 28.7519 7.16992 27.4079 7.16992Z" fill="#0040FF"/>
</svg>
